<svg xmlns="http://www.w3.org/2000/svg" viewBox="0 0 400 300" width="400" height="300" role="img" aria-label="Подъём штанги на бицепс">
  <defs>
    <linearGradient id="bg-barbell_curl" x1="0" y1="0" x2="1" y2="1">
      <stop offset="0" stop-color="#eef2ff"/>
      <stop offset="1" stop-color="#e0e7ff"/>
    </linearGradient>
  </defs>
  <rect width="400" height="300" fill="url(#bg-barbell_curl)"/>
  <g opacity="0.9"><circle cx="200" cy="85" r="20" fill="#4f46e5"/><path d="M200 108 L200 185" stroke="#6366f1" stroke-width="14" stroke-linecap="round"/><path d="M200 128 L160 150 Q150 160 165 165 M200 128 L240 150 Q250 160 235 165 M200 185 L170 250 M200 185 L230 250" stroke="#6366f1" stroke-width="12" stroke-linecap="round" fill="none"/></g>
  <g transform="translate(300,40) rotate(-25)" fill="#4f46e5"><rect x="-26" y="-6" width="52" height="12" rx="3"/><rect x="-34" y="-12" width="9" height="24" rx="2"/><rect x="25" y="-12" width="9" height="24" rx="2"/></g>
  <text x="20" y="282" font-family="Inter, system-ui, sans-serif" font-size="20" font-weight="700" fill="#1e1b4b">Подъём штанги на бицепс</text>
  <text x="380" y="282" text-anchor="end" font-family="Inter, system-ui, sans-serif" font-size="12" font-weight="600" fill="#4f46e5" opacity="0.7">ARMS</text>
</svg>